<?xml version="1.0" encoding="utf-8"?>
<!-- Generator: Adobe Illustrator 22.1.0, SVG Export Plug-In . SVG Version: 6.00 Build 0)  -->
<svg version="1.1" id="Layer_1" xmlns="http://www.w3.org/2000/svg" xmlns:xlink="http://www.w3.org/1999/xlink" x="0px" y="0px"
	 viewBox="0 0 728 728" style="enable-background:new 0 0 728 728;" xml:space="preserve">
<style type="text/css">
	.st0{fill:#263238;stroke:#000000;stroke-miterlimit:10;}
</style>
<g transform="translate(0.000000,728.000000) scale(0.100000,-0.100000)">
	<path class="st0" d="M3393.9,6741.5c-645.1-48.2-1298.4-319-1784.6-741.5c-608.2-527.2-994.9-1272.8-1067.7-2059.5
		c-25.6-277.9-5.1-670.8,47.2-910.8c13.3-61.5,27.7-129.2,30.8-148.7c22.6-111.8,149.7-461.5,218.5-600
		c81-164.1,237.9-411.3,352.8-559c167.2-214.4,395.9-434.9,618.5-594.9c102.6-74.9,322-215.4,335.4-215.4c5.1,0,27.7-12.3,52.3-27.7
		c47.2-29.7,239-115.9,258.5-115.9c6.2,0,16.4,29.7,22.6,68.7c6.2,39,23.6,139.5,37.9,223.6c14.4,85.1,31.8,186.7,37.9,225.6
		c6.2,40,13.3,81,16.4,93.3c4.1,18.5-4.1,25.6-52.3,44.1c-110.8,46.2-369.2,218.5-498.5,334.4c-108.7,97.4-241,229.7-277.9,276.9
		c-21.5,28.7-63.6,82-93.3,120c-88.2,110.8-145.6,203.1-240,387.7c-51.3,100.5-136.4,323.1-168.2,441
		c-29.7,108.7-62.6,290.3-71.8,394.9c-5.1,62.6-12.3,138.5-15.4,169.2c-13.3,128.2,25.6,508.7,67.7,671.8
		c41,159,166.2,499.5,195.9,536.4c6.2,7.2,22.6,35.9,34.9,64.6c13.3,28.7,37.9,71.8,55.4,97.4c16.4,24.6,45.1,66.7,63.6,94.4
		c144.6,215.4,368.2,455.4,556.9,596.9c126.2,94.4,270.8,189.7,338.5,223.6c28.7,13.3,71.8,34.9,97.4,48.2
		c95.4,50.3,330.3,134.4,482,174.4c117.9,30.8,307.7,58.5,458.5,66.7c280,16.4,625.6-26.7,880-108.7
		c87.2-28.7,307.7-116.9,359-143.6c123.1-65.6,190.8-103.6,250.3-142.6c64.6-44.1,85.1-58.5,235.9-175.4
		c36.9-29.7,109.7-96.4,160-149.7c287.2-297.4,434.9-524.1,578.5-887.2c82-206.2,139.5-480,154.9-737.4
		c21.5-348.7-46.2-755.9-174.4-1060.5c-125.1-298.5-272.8-533.3-464.6-743.6c-199-218.5-470.8-428.7-684.1-529.2
		c-79-37.9-92.3-47.2-88.2-65.6c2.1-11.3,10.3-55.4,16.4-97.4c7.2-42.1,22.6-139.5,35.9-215.4s29.7-176.4,35.9-223.6
		c7.2-46.2,14.4-84.1,15.4-84.1c8.2,0,176.4,79,266.7,125.1c441,224.6,904.6,651.3,1193.8,1100.5c240,372.3,404.1,841,456.4,1302.5
		c19.5,168.2,22.6,481,6.2,656.4c-33.8,381.5-162,807.2-343.6,1144.6C6240,5375.4,6063.6,5614.4,5839,5840
		c-97.4,98.5-220.5,209.2-248.2,224.6c-10.3,5.1-40,28.7-68.7,51.3c-177.4,147.7-502.6,329.2-769.2,430.8
		c-129.2,49.2-292.3,101.5-353.8,112.8c-19.5,4.1-86.2,18.5-148.7,31.8C4012.3,6742.5,3675.9,6762,3393.9,6741.5z"/>
	<path class="st0" d="M3352.8,5485.1c-241-35.9-477.9-125.1-719-268.7c-134.4-81-372.3-302.6-487.2-453.3
		c-183.6-242-307.7-542.6-352.8-851.3c-42.1-284.1-15.4-605.1,71.8-851.3c17.4-50.3,34.9-101.5,39-112.8
		c14.4-50.3,128.2-264.6,181.5-343.6c141.5-209.2,321-388.7,520-521c37.9-25.6,72.8-43.1,75.9-40c8.2,8.2,17.4,51.3,49.2,243.1
		c14.4,82.1,31.8,187.7,41,235.9c8.2,48.2,18.5,113.8,21.5,145.6l7.2,59.5l-75.9,84.1c-42.1,47.2-93.3,112.8-115.9,146.7
		c-21.5,33.8-47.2,73.8-57.4,88.2c-23.6,35.9-95.4,208.2-110.8,265.6c-98.5,388.7-20.5,777.4,220.5,1094.3
		c181.5,236.9,484.1,414.4,787.7,460.5c131.3,20.5,333.3,14.4,462.6-14.4c145.6-32.8,337.4-119,456.4-206.2
		c58.5-43.1,202-177.4,230.8-217.4c81-108.7,107.7-150.8,154.9-244.1c53.3-106.7,97.4-237.9,110.8-329.2
		c4.1-25.6,9.2-103.6,12.3-174.4c13.3-279-69.7-545.6-241-774.3c-32.8-43.1-61.5-75.9-125.1-143.6l-39-41l14.4-71.8
		c8.2-39,31.8-171.3,51.3-292.3c42.1-254.4,51.3-306.7,59.5-313.8c3.1-3.1,34.9,14.4,71.8,39c287.2,190.8,506.7,445.1,665.6,772.3
		c148.7,306.7,205.1,697.4,152.8,1053.3c-26.7,178.5-56.4,288.2-126.2,454.4c-98.5,235.9-236.9,437.9-420.5,616.4
		c-94.4,90.3-252.3,219.5-269.7,219.5c-3.1,0-21.5,11.3-39,24.6c-32.8,24.6-260.5,140.5-299.5,151.8c-11.3,4.1-66.7,22.6-123.1,42.1
		C3966.2,5503.6,3641,5529.2,3352.8,5485.1z"/>
	<path class="st0" d="M3511.8,4252.3c-82.1-19.5-223.6-92.3-276.9-143.6c-77.9-74.9-102.6-107.7-148.7-200
		c-54.4-109.7-71.8-197.9-62.6-312.8c15.4-189.7,103.6-340.5,272.8-470.8l35.9-27.7V1820.6c0-701.5,3.1-1280,8.2-1284.1
		c10.3-10.3,597.9-11.3,609.2-1c4.1,5.1,8.2,583.6,8.2,1286.1v1276.9l30.8,21.5c115.9,82.1,213.3,211.3,250.3,331.3
		c97.4,310.8-52.3,631.8-357.9,768.2C3795.9,4258.5,3608.2,4274.9,3511.8,4252.3z"/>
</g>
</svg>
