<svg version="1" xmlns="http://www.w3.org/2000/svg" width="933.333" height="933.333" viewBox="0 0 700.000000 700.000000"><path d="M328 51.7c-47.7 4.5-86.6 16.3-125.3 38C127.9 131.4 73.6 206.2 56.6 291c-3.7 18.3-4.6 27.2-5.3 49.5-1.9 68.1 16.5 128.8 56 184.1 27.9 39.1 70.3 74.7 113.7 95.3 5.8 2.7 11.7 5.3 13.1 5.6 2.5.6 2.7.4 3.8-4.2 1.4-6.1 9.1-52.1 9.1-54.3 0-1-1.7-2.5-4.2-3.6-16.6-7.4-42.7-26.5-61.1-44.7-19.7-19.5-33.2-37.8-44.6-60.5-17.7-35.2-25.6-68.4-25.5-107.2 0-29.7 2.7-47.3 10.9-72.9 8.9-27.4 17.7-45 33.3-66.4 9.5-13.1 30.9-36 43-46 46.2-38.5 108.7-58.6 166.7-53.8 28.4 2.4 47.9 6.7 70.7 15.7 41.7 16.3 72.4 39.1 101.4 75 54.7 68 66.8 165.5 30.2 244.9-16.2 35-36.5 61.8-64.8 85.4-13 10.9-26.8 20.3-38.5 26.5-4.9 2.7-9.6 5.4-10.3 6.1-1.1 1-.5 6.2 3.4 30.3 2.6 16 5.1 29.7 5.5 30.3 1 1.8 32.5-14.1 47.4-23.9 42.5-27.9 80.9-69 103-110.2 19.3-36 31.1-76.1 34.6-117.7 1.5-18.1.6-50.7-2-67.8-9.8-65.2-39.5-123.1-87.2-170.2C515.7 93.6 462 66 400.5 55c-17.3-3.1-56.3-4.9-72.5-3.3z"/><path d="M325.3 172c-9.9 1.4-29.8 6.7-39.7 10.6-28.9 11.5-51.5 27.5-72.4 51.4-19.1 21.9-32.9 50.3-39.4 81.5-2 9.7-2.3 13.8-2.3 35 0 21.3.3 25.2 2.3 34.7 7.6 35.5 24.9 67.3 50.4 92.6 9 8.9 24.8 21.6 30.8 24.7l2.9 1.5 1-3.7c1.5-5.5 10.1-56.8 10.1-60 0-2-1.8-4.8-6.1-9.8-12.3-14.1-19.1-25-24.9-40.2-4.9-12.7-6.4-22-6.5-39.8 0-22.3 2.3-32.7 11.5-52.3 13.5-28.4 37.2-49.6 68-60.6 28.9-10.4 64.1-8.2 92.1 5.9 11.1 5.6 16.4 9.3 26.9 18.7 10.4 9.3 18.4 19.6 25.4 32.8 8.8 16.8 12.1 28.7 13.2 48 1.8 33.4-8.7 62.4-31.5 87.4-5.4 5.9-7.1 8.5-6.7 10 .3 1.2 2.8 15.4 5.6 31.6 2.8 16.2 5.5 29.9 6 30.4 1.2 1.2 2.3.6 13.4-7.3 35.8-25.5 63-68.4 71.1-112.2 5-27.3 2.8-61.9-5.5-87.9-3.3-10.2-11.7-28.4-17.7-38.4-13-21.5-38-47-57.8-58.8-11.4-6.8-28-14.5-39.2-18.2-19.9-6.6-27.1-7.7-52.3-8.1-12.4-.2-25.3 0-28.7.5z"/><path d="M338 291.1c-5.9 1.1-19.6 7.9-25.8 12.8-5.7 4.5-10.7 11.1-15.1 19.8-5 9.8-6.2 14.8-6.2 25.9.1 18.6 6.3 32.1 21.2 45.7l7.9 7.2.1 95c.1 52.2.4 107.6.8 123l.6 28 29.1.3 29.1.2.6-52.6c.4-29 .7-84.5.7-123.3v-70.6l7.5-6.9c11-9.9 17.8-20.8 20.5-32.6 1.7-8 1.2-22.1-1.1-29.6-5.2-17-18-31.7-33.4-38.5-9.5-4.2-25.8-5.9-36.5-3.8z"/></svg>