<svg xmlns="http://www.w3.org/2000/svg" xmlns:xlink="http://www.w3.org/1999/xlink" viewBox="0 0 1206.84 258.37"><defs><linearGradient id="fd8c016f-318f-42c3-a73a-6bee1ae3d2b4" x1="69.62" y1="60.85" x2="69.62" y2="-40.15" gradientTransform="translate(-0.1 24.25) scale(1 0.6)" gradientUnits="userSpaceOnUse"><stop offset="0" stop-color="#b0b5d0"/><stop offset="0.35" stop-color="#9da2bb"/><stop offset="0.73" stop-color="#848a9f"/><stop offset="1" stop-color="#85848a" stop-opacity="0"/></linearGradient></defs><title>Dark</title><g id="f849b26f-e668-4ac8-ad98-568a2727b2ff" data-name="Layer 2"><g id="e5def245-f21c-4f41-90c2-52419a9a75ea" data-name="Layer 1"><g id="f9b43cee-7213-4426-af65-f2600ee3df75" data-name="Logos"><g id="bba336c1-225e-48e7-9333-ff222d43a84e" data-name="Dark"><polygon points="69.38 197.06 0 221.56 69.38 246.07 138.75 221.56 69.38 197.06" style="fill:#484a64"/><polygon points="136.54 207.11 69.38 183.03 2.22 207.11 69.38 231.19 136.54 207.11" style="fill:#595a72"/><polygon points="134.32 192.65 69.38 169 4.43 192.65 69.38 216.31 134.32 192.65" style="fill:#696b80"/><polygon points="132.1 178.2 69.38 154.97 6.65 178.2 69.38 201.43 132.1 178.2" style="fill:#7a7b8e"/><polygon points="129.89 163.75 69.38 140.94 8.86 163.75 69.38 186.55 129.89 163.75" style="fill:#8b8c9c"/><polygon points="127.67 149.29 69.38 126.91 11.08 149.29 69.38 171.67 127.67 149.29" style="fill:#9b9caa"/><polygon points="125.46 134.84 69.38 112.88 13.3 134.84 69.38 156.79 125.46 134.84" style="fill:#acadb9"/><polygon points="123.24 120.38 69.38 98.85 15.51 120.38 69.38 141.91 123.24 120.38" style="fill:#bcbdc7"/><polygon points="121.02 105.93 69.38 84.82 17.73 105.93 69.38 127.03 121.02 105.93" style="fill:#cdced5"/><polygon points="118.81 91.47 69.38 70.79 19.94 91.47 69.38 112.15 118.81 91.47" style="fill:#dedee3"/><polygon points="116.59 77.02 69.38 56.76 22.16 77.02 69.38 97.27 116.59 77.02" style="fill:#eeeff1"/><polygon points="69.38 42.73 24.38 62.56 69.38 82.39 114.38 62.56 69.38 42.73" style="fill:#fff"/><g style="opacity:0.75"><rect x="67.52" width="4" height="61" style="fill:url(#fd8c016f-318f-42c3-a73a-6bee1ae3d2b4)"/></g><path d="M215.62,212a153.84,153.84,0,0,1-20.88-2.84v-15.3q16.27,1.57,43.33,1.57,13.92,0,21.56-4.21t7.65-15.39v-8.43q0-18.22-19.41-18.23h-14.7q-19.41,0-29.41-8.53t-10-27.93v-8q0-20,10.88-29.21t32.45-9.21a195.71,195.71,0,0,1,21.56,1.37Q270.8,69,279.43,70.57V85.86l-4.12-.2q-25.1-1.75-36.07-1.76-13.34,0-20,4.7t-6.67,17.06v5.88q0,10.2,5.39,14.51t16.18,4.31H250q17.66,0,26.86,9.51t9.22,25.19v10.19q0,21.38-12.35,29.6t-34.9,8.23Q228.86,213.08,215.62,212Z" style="fill:#eeeff1"/><path d="M311.58,62.34h19.6v84.88h14.31L374.7,107h20.39L360,156l37.63,55.87H377.25l-32.35-47H331.18v47h-19.6Z" style="fill:#eeeff1"/><path d="M457,211.91a28.76,28.76,0,0,1-17.84-6.27q-7.63-6.07-11.37-19.41L404.3,107h20.58l21.17,75.08q4.32,13.33,14.71,13.33L485.26,107h20.19L469.38,239,460,258.37H444.29Z" style="fill:#eeeff1"/><path d="M542.6,212a153.84,153.84,0,0,1-20.88-2.84v-15.3Q538,195.45,565,195.44q13.92,0,21.57-4.21t7.64-15.39v-8.43q0-18.22-19.41-18.23h-14.7q-19.41,0-29.4-8.53t-10-27.93v-8q0-20,10.88-29.21t32.44-9.21a195.88,195.88,0,0,1,21.57,1.37q12.15,1.38,20.78,2.94V85.86l-4.12-.2q-25.1-1.75-36.07-1.76-13.34,0-20,4.7t-6.66,17.06v5.88q0,10.2,5.39,14.51t16.17,4.31H577q17.64,0,26.86,9.51t9.21,25.19v10.19q0,21.38-12.35,29.6t-34.89,8.23Q555.82,213.08,542.6,212Z" style="fill:#eeeff1"/><path d="M646.1,201.32Q635,189.56,635,159.76q0-21,5.1-32.73t14.41-16.47q9.3-4.71,23.62-4.7a165.91,165.91,0,0,1,35.09,3.33v11.56h-29.6q-10.39,0-16.47,3.24T658,135.75q-3.13,8.53-3.14,24.21,0,15.28,3.24,23.52t9.41,11.37q6.16,3.15,16.36,3.14h31v11.18A144.73,144.73,0,0,1,697.36,212a186.83,186.83,0,0,1-19.8,1.07Q657.18,213.08,646.1,201.32Z" style="fill:#eeeff1"/><path d="M735.59,107h15.09l4.51,17.64a63.16,63.16,0,0,1,15.68-14,34.83,34.83,0,0,1,18.43-5,34.1,34.1,0,0,1,9.41,1.18V127a77,77,0,0,0-11.76-1,39,39,0,0,0-16.86,3.43,56.5,56.5,0,0,0-14.9,10.88v71.55h-19.6Z" style="fill:#eeeff1"/><path d="M816,206q-7.46-7.07-7.45-19.21v-8.24q0-12.54,8.53-20.09t25-7.55h32.74V140a22.11,22.11,0,0,0-2.16-10.49q-2.16-4-7.74-6.18t-16-2.15H816.74V109.58a184.1,184.1,0,0,1,38.82-4.12q20,0,29.5,7.75t9.51,25.38v73.32H879.08l-3.33-11.76q-1.77,1.56-8.33,4.7a102.5,102.5,0,0,1-15.29,5.69,60.69,60.69,0,0,1-17,2.54Q823.41,213.08,816,206Zm40-8.92q6.66-1.67,12.45-3.73a60.71,60.71,0,0,0,6.37-2.45V160.75l-27.45,1.17q-19,1.19-19,16.86v4.7q0,8,4.7,11.67a18.37,18.37,0,0,0,11.57,3.63A48.22,48.22,0,0,0,856,197.11Z" style="fill:#eeeff1"/><path d="M922.21,107h16.07l3.53,10.59a73.17,73.17,0,0,1,15.29-8.33,45.57,45.57,0,0,1,17.45-3.63q19.2,0,28.32,14.7t9.12,39q0,26.87-8.92,40.38t-28.52,13.53a62,62,0,0,1-16.76-2.45,70.69,70.69,0,0,1-16-6.57v54.11h-19.6Zm70.17,52.34q0-19.41-6.56-28.52t-17-9.12q-12.54,0-27.05,7.85v59.79a55.88,55.88,0,0,0,13,5.48,50.69,50.69,0,0,0,13.82,2Q992.39,196.81,992.38,159.37Z" style="fill:#eeeff1"/><path d="M1051.49,208.18q-9.71-4.89-13.92-16.46t-4.22-32.35q0-21.17,4.22-32.74t13.82-16.27q9.6-4.69,26.66-4.7,14.9,0,23.72,3.14a22.71,22.71,0,0,1,12.94,10.78q4.11,7.64,4.11,21.17,0,13.92-8,20.09T1087.65,167H1053q.18,12,2.64,18.52a16.4,16.4,0,0,0,8.92,9.51Q1071,198,1083.14,198h32.74v11.76q-10.79,1.58-19,2.45a176,176,0,0,1-18.63.88Q1061.19,213.08,1051.49,208.18Zm34.4-53.51q8,0,11.66-3t3.63-10.68q0-11.77-5.19-16.28t-17.94-4.5q-10,0-15.39,2.94c-3.6,2-6.14,5.39-7.65,10.29s-2.25,12-2.25,21.27Z" style="fill:#eeeff1"/><path d="M1143.72,107h15.09l4.51,17.64a63.34,63.34,0,0,1,15.68-14,34.83,34.83,0,0,1,18.43-5,34.05,34.05,0,0,1,9.41,1.18V127a76.79,76.79,0,0,0-11.76-1,39,39,0,0,0-16.86,3.43,56.5,56.5,0,0,0-14.9,10.88v71.55h-19.6Z" style="fill:#eeeff1"/></g></g></g></g></svg>