<svg xmlns="http://www.w3.org/2000/svg" viewBox="0 0 185.62 386.5"><title>Tower</title><g style="isolation:isolate"><g id="a8928af1-d317-4062-9048-09c6f20a674c" data-name="Layer 2"><g id="f71cda88-2b99-4c8f-9409-bcb1108cbd8f" data-name="Layer 2"><path d="M180.86,326.34l-76.54-44.15c-6.36-3.66-16.66-3.66-23,0L4.76,326.34c-6.35,3.66-6.35,9.6,0,13.27l76.55,44.15c6.35,3.66,16.65,3.66,23,0l76.54-44.15C187.21,335.94,187.21,330,180.86,326.34Z" style="fill:#61199b;opacity:0.08"/><path d="M81.43,367.08c6.29,3.55,16.49,3.55,22.77,0L180,324.36c6.28-3.55,6.28-9.3,0-12.84L104.2,268.8c-6.28-3.55-16.48-3.55-22.77,0L5.68,311.52c-6.29,3.54-6.29,9.29,0,12.84Z" style="fill:#5c20a0;opacity:0.12380952462554;mix-blend-mode:screen"/><path d="M81.56,350.4c6.22,3.43,16.31,3.43,22.53,0l75-41.29c6.22-3.43,6.22-9,0-12.41l-75-41.3c-6.22-3.43-16.31-3.43-22.53,0l-75,41.3c-6.22,3.42-6.22,9,0,12.41Z" style="fill:#5827a5;opacity:0.167619048349167;mix-blend-mode:screen"/><path d="M81.68,333.73c6.16,3.31,16.14,3.31,22.3,0l74.17-39.87c6.15-3.31,6.15-8.68,0-12L104,242c-6.16-3.31-16.14-3.31-22.3,0L7.51,281.88c-6.15,3.3-6.15,8.67,0,12Z" style="fill:#532ea9;opacity:0.211428572072795;mix-blend-mode:screen"/><path d="M81.81,317.05c6.09,3.19,16,3.19,22,0l73.38-38.44c6.09-3.19,6.09-8.37,0-11.56l-73.38-38.44c-6.09-3.19-16-3.19-22,0L8.43,267.05c-6.09,3.19-6.09,8.37,0,11.56Z" style="fill:#4f35ae;opacity:0.255238095796422;mix-blend-mode:screen"/><path d="M81.93,300.38c6,3.07,15.8,3.07,21.82,0l72.59-37c6-3.07,6-8.06,0-11.13l-72.59-37c-6-3.07-15.79-3.07-21.82,0l-72.58,37c-6,3.07-6,8.06,0,11.13Z" style="fill:#4a3cb3;opacity:0.29904761952005;mix-blend-mode:screen"/><path d="M82.06,283.7c6,2.95,15.62,2.95,21.58,0l71.8-35.59c6-3,6-7.75,0-10.7l-71.8-35.59c-6-3-15.62-3-21.58,0l-71.8,35.59c-6,3-6,7.74,0,10.7Z" style="fill:#4543b8;opacity:0.342857143243677;mix-blend-mode:screen"/><path d="M82.18,267c5.9,2.84,15.45,2.84,21.35,0l71-34.16c5.9-2.84,5.9-7.44,0-10.27l-71-34.17c-5.9-2.83-15.45-2.83-21.35,0l-71,34.17c-5.9,2.83-5.9,7.43,0,10.27Z" style="fill:#414abc;opacity:0.386666666967304;mix-blend-mode:screen"/><path d="M82.31,250.35c5.83,2.72,15.28,2.72,21.1,0l70.22-32.74c5.83-2.72,5.83-7.12,0-9.84L103.41,175c-5.82-2.72-15.27-2.72-21.1,0L12.09,207.77c-5.82,2.72-5.82,7.12,0,9.84Z" style="fill:#3c51c1;opacity:0.430476190690932;mix-blend-mode:screen"/><path d="M82.43,233.67c5.77,2.6,15.11,2.6,20.87,0l69.43-31.31c5.76-2.6,5.76-6.81,0-9.41L103.3,161.63c-5.76-2.6-15.1-2.6-20.87,0L13,193c-5.76,2.6-5.76,6.81,0,9.41Z" style="fill:#3758c6;opacity:0.474285714414559;mix-blend-mode:screen"/><path d="M82.56,217c5.7,2.48,14.93,2.48,20.63,0l68.63-29.89c5.7-2.48,5.7-6.5,0-9l-68.63-29.88c-5.7-2.48-14.93-2.48-20.63,0L13.93,178.12c-5.7,2.49-5.7,6.51,0,9Z" style="fill:#335fcb;opacity:0.518095238138187;mix-blend-mode:screen"/><path d="M82.69,200.32c5.63,2.36,14.76,2.36,20.39,0l67.84-28.46c5.63-2.36,5.63-6.19,0-8.56l-67.84-28.46c-5.63-2.36-14.76-2.36-20.39,0L14.84,163.3c-5.63,2.37-5.63,6.2,0,8.56Z" style="fill:#2e67cf;opacity:0.561904761861814;mix-blend-mode:screen"/><path d="M82.81,183.64c5.57,2.25,14.59,2.25,20.15,0l67.05-27c5.57-2.25,5.57-5.88,0-8.13l-67-27c-5.56-2.25-14.58-2.25-20.15,0l-67,27c-5.57,2.25-5.57,5.88,0,8.13Z" style="fill:#2a6ed4;opacity:0.605714285585441;mix-blend-mode:screen"/><path d="M82.94,167c5.49,2.12,14.41,2.12,19.91,0l66.26-25.61c5.5-2.13,5.5-5.57,0-7.7l-66.26-25.61c-5.5-2.13-14.42-2.13-19.91,0L16.68,133.66c-5.5,2.13-5.5,5.57,0,7.7Z" style="fill:#2575d9;opacity:0.649523809309069;mix-blend-mode:screen"/><path d="M83.06,150.29c5.43,2,14.24,2,19.68,0l65.47-24.18c5.43-2,5.43-5.26,0-7.27L102.74,94.65c-5.44-2-14.25-2-19.68,0L17.59,118.84c-5.43,2-5.43,5.26,0,7.27Z" style="fill:#207cde;opacity:0.693333333032696;mix-blend-mode:screen"/><path d="M83.19,133.62c5.36,1.89,14.07,1.89,19.44,0l64.67-22.76c5.37-1.89,5.37-5,0-6.84L102.63,81.26c-5.37-1.89-14.08-1.89-19.44,0L18.51,104c-5.37,1.89-5.37,5,0,6.84Z" style="fill:#1c83e2;opacity:0.737142856756323;mix-blend-mode:screen"/><path d="M83.31,116.94a35.38,35.38,0,0,0,19.2,0L166.4,95.61c5.3-1.77,5.3-4.64,0-6.41L102.51,67.86a35.38,35.38,0,0,0-19.2,0L19.42,89.2c-5.3,1.77-5.3,4.64,0,6.41Z" style="fill:#178ae7;opacity:0.780952380479951;mix-blend-mode:screen"/><path d="M83.44,100.26a36.72,36.72,0,0,0,19,0l63.1-19.9c5.23-1.65,5.23-4.33,0-6l-63.1-19.9a36.72,36.72,0,0,0-19,0l-63.1,19.9c-5.24,1.66-5.24,4.34,0,6Z" style="fill:#1291ec;opacity:0.824761904203578;mix-blend-mode:screen"/><path d="M83.56,83.59a38.79,38.79,0,0,0,18.73,0l62.3-18.48c5.17-1.54,5.17-4,0-5.56l-62.3-18.48a38.79,38.79,0,0,0-18.73,0L21.26,59.55c-5.18,1.54-5.18,4,0,5.56Z" style="fill:#0e98f1;opacity:0.868571427927206;mix-blend-mode:screen"/><path d="M83.69,66.91a40.62,40.62,0,0,0,18.48,0l61.52-17c5.1-1.42,5.1-3.71,0-5.13l-61.52-17a40.62,40.62,0,0,0-18.48,0l-61.52,17c-5.1,1.42-5.1,3.71,0,5.13Z" style="fill:#099ff5;opacity:0.912380951650833;mix-blend-mode:screen"/><path d="M83.81,50.24a43.52,43.52,0,0,0,18.25,0l60.72-15.63c5-1.3,5-3.4,0-4.7L102.06,14.28a43.19,43.19,0,0,0-18.25,0L23.09,29.91c-5,1.3-5,3.4,0,4.7Z" style="fill:#05a6fa;opacity:0.95619047537446;mix-blend-mode:screen"/><path d="M161.88,15.09,102,.88a46.64,46.64,0,0,0-18,0L24,15.09c-5,1.18-5,3.09,0,4.27l59.94,14.2a46.26,46.26,0,0,0,18,0l59.93-14.2C166.86,18.18,166.86,16.27,161.88,15.09Z" style="fill:#00adff;mix-blend-mode:screen"/></g></g></g></svg>