<?xml version="1.0" encoding="utf-8"?>
<!-- Generator: Adobe Illustrator 23.0.1, SVG Export Plug-In . SVG Version: 6.00 Build 0)  -->
<svg version="1.1" baseProfile="tiny" id="Layer_1" xmlns="http://www.w3.org/2000/svg" xmlns:xlink="http://www.w3.org/1999/xlink"
	 x="0px" y="0px" viewBox="0 0 575.1 100" xml:space="preserve">
<g>
	<path fill="#141B3F" d="M22.4,19.1c1.6-1.3,3.7-1.9,6.4-1.9c6.8,0,13.3,2.4,19.7,7.2l8.3-11.9C53.2,9.4,48.9,7,44,5.3
		s-9.8-2.5-14.7-2.5c-7.5,0-13.7,1.9-18.7,5.7s-7.5,9.1-7.5,16.1s2,12.1,5.9,15.3c3.9,3.2,10.2,5.9,18.7,7.9c5.4,1.3,9,2.6,10.8,3.9
		c1.8,1.3,2.7,3,2.7,5.2c0,2.2-0.9,3.9-2.6,5.2s-4.1,1.9-7.1,1.9c-6.7,0-14-3.5-21.9-10.4L0,65.7c9.3,8.6,19.7,12.9,31.3,12.9
		c8,0,14.5-2,19.4-6.1s7.4-9.4,7.4-16s-1.9-11.6-5.8-15s-9.2-6-16.2-7.7c-7-1.7-11.4-3.2-13.3-4.5c-1.9-1.3-2.9-3-2.9-5.1
		S20.8,20.4,22.4,19.1z"/>
	<path fill="#141B3F" d="M84,77.8V61.5l5.1-5.3l14.4,21.6h18.7L99.9,44.1l21.5-22.9h-19.8L84,39.9V0H68.3v77.8H84z"/>
	<path fill="#141B3F" d="M138.2,100c4,0,7.6-1.1,10.8-3.2c3.2-2.1,5.6-5.1,7.2-9l26.2-66.5h-16.8l-13.7,35.1l-13.7-35.1h-16.8
		c14.5,36.7,21.8,55.8,21.8,57.4c0,1.6-0.5,3.1-1.6,4.6s-2.3,2.1-3.8,2.1c-2.8,0-5.5-1.3-8.2-3.9l-7.1,11.6
		C127.4,97.8,132.7,100,138.2,100z"/>
</g>
<g>
	<path fill="#141B3F" d="M206.7,19.1c1.6-1.3,3.7-1.9,6.4-1.9c6.8,0,13.3,2.4,19.7,7.2l8.3-11.9c-3.6-3.1-7.9-5.5-12.8-7.1
		c-4.9-1.7-9.8-2.5-14.7-2.5c-7.5,0-13.7,1.9-18.7,5.7s-7.5,9.1-7.5,16.1s2,12.1,5.9,15.3c3.9,3.2,10.2,5.9,18.7,7.9
		c5.4,1.3,9,2.6,10.8,3.9c1.8,1.3,2.7,3,2.7,5.2c0,2.2-0.9,3.9-2.6,5.2s-4.1,1.9-7.1,1.9c-6.7,0-14-3.5-21.9-10.4l-9.7,11.9
		c9.3,8.6,19.7,12.9,31.3,12.9c8,0,14.5-2,19.4-6.1c4.9-4.1,7.4-9.4,7.4-16s-1.9-11.6-5.8-15s-9.2-6-16.2-7.7
		c-7-1.7-11.4-3.2-13.3-4.5c-1.9-1.3-2.9-3-2.9-5.1S205.2,20.4,206.7,19.1z"/>
	<path fill="#141B3F" d="M279.7,64.7c-4,0-7.5-1.3-10.4-4c-3-2.7-4.5-6.4-4.5-11.2s1.5-8.5,4.5-11.2c3-2.7,6.5-4,10.6-4
		c2.6,0,5.2,0.6,7.8,1.8s4.8,2.9,6.7,5l8.2-10.7c-3.1-3.3-6.8-5.8-11-7.4c-4.2-1.7-8.3-2.5-12.3-2.5c-8.1,0-15.1,2.7-21,8.1
		s-8.9,12.4-8.9,21.1s2.9,15.6,8.8,21c5.8,5.3,13,8,21.4,8s16.3-3.8,23.6-11.3l-9.3-10.5C289.7,62.1,284.9,64.7,279.7,64.7z"/>
	<path fill="#141B3F" d="M341.1,35.2h3L344,20.4c-3.1,0.1-6.2,0.9-9.3,2.5s-5.6,3.6-7.6,5.9v-7.4h-15.7v56.4h15.7V53.4
		c0-5.5,1.2-9.8,3.5-13.2C332.9,36.9,336.4,35.2,341.1,35.2z"/>
	<path fill="#141B3F" d="M400.2,77.8v-36c0-7.4-2.2-12.8-6.5-16.2c-4.3-3.4-9.9-5.1-16.8-5.1c-9.5,0-18,2.7-25.4,8.1l7,10.2
		c2.1-1.6,4.7-3,7.7-4c3-1.1,5.9-1.6,8.6-1.6c6.4,0,9.5,3,9.5,9v0.3h-11.7c-7.3,0-13,1.4-17.2,4.3c-4.2,2.9-6.3,7.2-6.3,12.9
		s2,10.4,6.1,13.8c4.1,3.5,9.1,5.2,15,5.2c6,0,11-2.6,15-7.7v6.8H400.2z M384.3,56.3c0,2.9-1.1,5.2-3.2,6.9
		c-2.1,1.7-4.6,2.6-7.4,2.6c-2.8,0-4.9-0.5-6.4-1.6c-1.5-1.1-2.3-2.6-2.3-4.7c0-3.9,3.1-5.9,9.4-5.9h9.9V56.3z"/>
	<path fill="#141B3F" d="M462.7,28.7c-5.1-5.5-11-8.2-17.6-8.2c-6.6,0-12.3,2.4-17.1,7.2v-6.3h-15.7v76.7H428V70.3
		c4.2,5.5,9.7,8.3,16.6,8.3s12.9-2.8,18-8.4c5.1-5.6,7.7-12.5,7.7-20.9S467.8,34.2,462.7,28.7z M431.6,60.8
		c-2.6-2.9-3.8-6.6-3.8-11.2s1.3-8.4,3.8-11.4c2.6-3,5.7-4.6,9.4-4.6c3.7,0,6.9,1.5,9.5,4.6c2.7,3.1,4,6.9,4,11.4
		c0,4.5-1.4,8.3-4.1,11.2c-2.7,2.9-5.9,4.4-9.5,4.4C437.3,65.2,434.2,63.7,431.6,60.8z"/>
	<path fill="#141B3F" d="M528.7,69.6l-8.8-9.5c-3.6,3.7-8.1,5.6-13.6,5.6c-3.4,0-6.5-1-9.2-2.9c-2.7-2-4.3-4.5-4.8-7.5h41.1v-8.4
		c0-8.2-2.7-14.6-8.1-19.3s-12-7-19.8-7s-14.5,2.6-20.2,7.9c-5.7,5.2-8.5,12.3-8.5,21.2s2.8,16,8.4,21.2c5.6,5.3,12.7,7.9,21.2,7.9
		S522.3,75.6,528.7,69.6z M513.6,36.2c2.2,1.8,3.4,4.4,3.8,7.8h-24.7c0.4-3.2,1.9-5.8,4.5-7.7c2.6-1.9,5.4-2.8,8.5-2.8
		C508.8,33.4,511.4,34.3,513.6,36.2z"/>
	<path fill="#141B3F" d="M572.1,35.2h3L575,20.4c-3.1,0.1-6.2,0.9-9.3,2.5c-3,1.6-5.6,3.6-7.6,5.9v-7.4h-15.7v56.4h15.7V53.4
		c0-5.5,1.2-9.8,3.5-13.2C563.9,36.9,567.4,35.2,572.1,35.2z"/>
</g>
</svg>
