<?xml version="1.0" encoding="utf-8"?>
<!-- Generator: Adobe Illustrator 23.0.1, SVG Export Plug-In . SVG Version: 6.00 Build 0)  -->
<svg version="1.1" id="Layer_1" xmlns="http://www.w3.org/2000/svg" xmlns:xlink="http://www.w3.org/1999/xlink" x="0px" y="0px"
	 viewBox="0 0 185.7 654.8" style="enable-background:new 0 0 185.7 654.8;" xml:space="preserve">
<style type="text/css">
	.st0{fill:#FFFFFF;stroke:#000000;stroke-miterlimit:10;}
</style>
<g>
	<path class="st0" d="M131,218.4l-11.5-39.6h-18.9V0H85v178.8H66.1l-11.5,39.6H18.3v31.8h15.6v-16.2h117.8v16.2h15.6v-31.8H131z
		 M70.9,218.4l6.9-24h30l6.9,24H70.9z"/>
</g>
<g>
	<g>
		<rect x="50.9" y="238.3" class="st0" width="15.6" height="15.6"/>
	</g>
</g>
<g>
	<g>
		<rect x="84.7" y="238.3" class="st0" width="15.6" height="15.6"/>
	</g>
</g>
<g>
	<g>
		<rect x="119.2" y="238.3" class="st0" width="15.6" height="15.6"/>
	</g>
</g>
<g>
	<g>
		<path class="st0" d="M0,258.1v396.8h185.7V258.1H0z M170,639.2H15.6v-29.7h105.9v-15.6H15.6V273.7H170L170,639.2L170,639.2z"/>
	</g>
</g>
<g>
	<g>
		<polygon class="st0" points="33.9,290.4 33.9,563.1 49.6,563.1 49.6,306 67.3,306 67.3,563.1 82.9,563.1 82.9,290.4 		"/>
	</g>
</g>
<g>
	<g>
		<polygon class="st0" points="102.7,290.4 102.7,563.1 118.4,563.1 118.4,306 136.1,306 136.1,563.1 151.7,563.1 151.7,290.4 		"/>
	</g>
</g>
<g>
	<g>
		<rect x="139.8" y="593.8" class="st0" width="15.6" height="15.6"/>
	</g>
</g>
</svg>
